<?xml version="1.0" encoding="utf-8"?>
<!-- Generator: Adobe Illustrator 17.1.0, SVG Export Plug-In . SVG Version: 6.00 Build 0)  -->
<!DOCTYPE svg PUBLIC "-//W3C//DTD SVG 1.1//EN" "http://www.w3.org/Graphics/SVG/1.1/DTD/svg11.dtd">
<svg version="1.1" xmlns="http://www.w3.org/2000/svg" xmlns:xlink="http://www.w3.org/1999/xlink" x="0px" y="0px"
	 viewBox="0 0 314.7 163" width="315px" height="163px"  preserveAspectRatio="xMidYMax" enable-background="new 0 0 314.7 163" xml:space="preserve">
<g id="Layer_1">
</g>
<g id="Isolation_Mode">
	<polygon id="triangle36_12_" fill="#A5CEE4" points="103.2,163 5.6,96.6 73.5,71.2 	"/>
	<polygon id="triangle36_11_" fill="#2B6180" points="114.7,53.8 65.9,0 76.2,43.8 	"/>
	<polygon id="triangle36_10_" fill="#8CB7CD" points="60.9,14 12,34.8 71.2,57.8 	"/>
	<polygon id="triangle36_9_" fill="#D0E9F7" points="0,89.5 7.2,44 67.7,63.6 	"/>
	<polygon id="triangle36_8_" fill="#8CB7CD" points="115.7,161.1 83.7,70.1 139.9,113.1 	"/>
	<polygon id="triangle36_7_" fill="#D0E9F7" points="126.9,64.1 87.8,56.8 143.9,100 	"/>
	<g>
		<path fill="#193A4D" d="M181.1,57c0,3-0.6,5.4-1.9,7.1c-1.3,1.7-3.2,2.5-5.6,2.5h-4.8V47.3h4.8c2.5,0,4.3,0.8,5.6,2.5
			C180.5,51.5,181.1,53.9,181.1,57z M177.9,57c0-1.1-0.1-2.1-0.3-3c-0.2-0.9-0.5-1.6-0.9-2.1c-0.4-0.6-0.8-1-1.4-1.3
			s-1.1-0.4-1.7-0.4H172v13.5h1.5c0.6,0,1.2-0.1,1.7-0.4c0.5-0.3,1-0.7,1.4-1.3s0.7-1.3,0.9-2.1C177.7,59.1,177.9,58.1,177.9,57z"/>
		<path fill="#193A4D" d="M186.9,66.5V47.3h3.3v19.2H186.9z"/>
		<path fill="#193A4D" d="M204.4,51c-0.7-0.9-1.6-1.3-2.7-1.3c-0.3,0-0.6,0.1-0.9,0.1c-0.3,0.1-0.6,0.3-0.8,0.5s-0.4,0.5-0.6,0.8
			c-0.1,0.3-0.2,0.8-0.2,1.2c0,0.8,0.2,1.4,0.7,1.9c0.5,0.4,1.1,0.9,1.9,1.3c0.5,0.2,1,0.5,1.4,0.8c0.5,0.3,0.9,0.7,1.3,1.1
			c0.4,0.4,0.7,1,1,1.5c0.3,0.6,0.4,1.3,0.4,2.1c0,0.9-0.1,1.8-0.4,2.5c-0.3,0.7-0.7,1.3-1.2,1.8c-0.5,0.5-1.1,0.9-1.8,1.1
			c-0.7,0.3-1.4,0.4-2.1,0.4c-1.1,0-2.1-0.2-3-0.6s-1.6-0.9-2.2-1.6l1.8-2.4c0.4,0.5,0.9,0.9,1.5,1.2c0.6,0.3,1.2,0.4,1.8,0.4
			c0.7,0,1.3-0.2,1.7-0.7c0.5-0.5,0.7-1.1,0.7-2c0-0.8-0.3-1.5-0.8-2c-0.5-0.5-1.2-0.9-2.1-1.4c-0.5-0.3-1-0.5-1.5-0.8
			s-0.9-0.7-1.2-1.1c-0.4-0.4-0.6-0.9-0.8-1.5c-0.2-0.6-0.3-1.3-0.3-2.1c0-1,0.2-1.9,0.5-2.6c0.3-0.7,0.7-1.3,1.2-1.8
			c0.5-0.5,1.1-0.8,1.8-1c0.7-0.2,1.3-0.3,2-0.3c1,0,1.9,0.2,2.6,0.5c0.8,0.3,1.4,0.8,1.9,1.4L204.4,51z"/>
		<path fill="#193A4D" d="M221,66.3c-0.8,0.5-1.8,0.7-3,0.7c-1.1,0-2.1-0.3-2.9-0.8c-0.9-0.5-1.6-1.2-2.2-2.1
			c-0.6-0.9-1.1-2-1.4-3.2c-0.3-1.2-0.5-2.6-0.5-4c0-1.5,0.2-2.8,0.5-4.1c0.3-1.2,0.8-2.3,1.4-3.2c0.6-0.9,1.4-1.6,2.2-2.1
			c0.9-0.5,1.9-0.7,2.9-0.7c1.1,0,2.1,0.2,2.9,0.6c0.8,0.4,1.5,1,2,1.8l-1.9,2.3c-0.7-1.1-1.7-1.6-2.9-1.6c-0.7,0-1.2,0.2-1.7,0.6
			c-0.5,0.4-0.9,0.9-1.2,1.5c-0.3,0.6-0.6,1.4-0.7,2.2c-0.2,0.9-0.2,1.8-0.2,2.8c0,1,0.1,1.9,0.2,2.7c0.2,0.9,0.4,1.6,0.7,2.2
			c0.3,0.6,0.7,1.1,1.2,1.5c0.5,0.4,1.1,0.6,1.8,0.6c0.6,0,1.2-0.2,1.6-0.5c0.5-0.3,0.8-0.7,1.2-1.2l1.9,2.2
			C222.4,65.2,221.7,65.9,221,66.3z"/>
		<path fill="#193A4D" d="M240.6,56.9c0,1.5-0.2,2.9-0.5,4.1c-0.3,1.2-0.8,2.3-1.4,3.2c-0.6,0.9-1.3,1.6-2.2,2.1
			c-0.9,0.5-1.8,0.7-2.9,0.7c-1.1,0-2.1-0.2-2.9-0.7c-0.9-0.5-1.6-1.2-2.2-2.1c-0.6-0.9-1.1-2-1.4-3.2c-0.3-1.2-0.5-2.6-0.5-4.1
			s0.2-2.9,0.5-4.1c0.3-1.2,0.8-2.3,1.4-3.2c0.6-0.9,1.3-1.6,2.2-2.1c0.9-0.5,1.8-0.7,2.9-0.7c1.1,0,2,0.2,2.9,0.7s1.6,1.2,2.2,2.1
			s1.1,1.9,1.4,3.2C240.5,54,240.6,55.4,240.6,56.9z M237.2,56.9c0-1-0.1-1.9-0.2-2.8c-0.2-0.9-0.4-1.6-0.7-2.2s-0.7-1.1-1.1-1.5
			s-1-0.5-1.5-0.5c-0.6,0-1.1,0.2-1.6,0.5c-0.4,0.4-0.8,0.9-1.1,1.5c-0.3,0.6-0.5,1.4-0.7,2.2s-0.2,1.8-0.2,2.8c0,1,0.1,1.9,0.2,2.8
			c0.1,0.9,0.4,1.6,0.7,2.2c0.3,0.6,0.7,1.1,1.1,1.5c0.4,0.4,1,0.5,1.6,0.5c0.6,0,1.1-0.2,1.6-0.5c0.4-0.4,0.8-0.9,1.1-1.5
			c0.3-0.6,0.5-1.4,0.7-2.2C237.2,58.8,237.2,57.9,237.2,56.9z"/>
		<path fill="#193A4D" d="M253.2,66.5H249l-4.7-19.2h3.6l3.2,15.4h0.1l3.2-15.4h3.5L253.2,66.5z"/>
		<path fill="#193A4D" d="M262.7,66.5V47.3h8.6v2.9h-5.5v5.1h5.1V58h-5.1v5.7h5.8v2.9H262.7z"/>
		<path fill="#193A4D" d="M285.2,66.5l-3-8.2h-1.8v8.2h-3.2V47.3h5.5c0.8,0,1.5,0.1,2.2,0.3c0.7,0.2,1.2,0.5,1.7,1
			c0.5,0.5,0.9,1,1.1,1.7c0.3,0.7,0.4,1.5,0.4,2.5c0,0.7-0.1,1.4-0.3,2c-0.2,0.6-0.4,1.1-0.7,1.5c-0.3,0.4-0.6,0.7-1,1
			c-0.4,0.2-0.7,0.4-1,0.5l3.5,8.9H285.2z M285,53c0-0.6-0.1-1.1-0.2-1.4s-0.4-0.7-0.6-0.9s-0.6-0.4-0.9-0.5c-0.3-0.1-0.7-0.1-1-0.1
			h-1.8v5.9h1.8c0.8,0,1.5-0.2,2-0.7C284.7,54.7,285,54,285,53z"/>
		<path fill="#193A4D" d="M299.8,59.2v7.4h-3.2v-7.4l-4.8-11.9h3.5l2.9,8.6l0.1-0.1l2.9-8.5h3.5L299.8,59.2z"/>
		<path fill="#193A4D" d="M177.1,96.5l-1-4.1h-5.1l-1,4.1h-3.3l4.8-19.2h4.2l4.7,19.2H177.1z M173.7,80.4h-0.1l-2.1,9.5h4.2
			L173.7,80.4z"/>
		<path fill="#193A4D" d="M193.6,96.5L188.2,83h-0.1l0.1,13.6h-2.9V77.3h3.7l5.4,13.7h0.1l0-13.7h2.8v19.2H193.6z"/>
		<path fill="#193A4D" d="M212.2,96.5l-1-4.1h-5.1l-1,4.1H202l4.8-19.2h4.2l4.7,19.2H212.2z M208.8,80.4h-0.1l-2.1,9.5h4.2
			L208.8,80.4z"/>
		<path fill="#193A4D" d="M220.3,96.5V77.3h3.3v16.2h5.3v3H220.3z"/>
		<path fill="#193A4D" d="M238.7,89.2v7.4h-3.2v-7.4l-4.8-11.9h3.5l2.9,8.6l0.1-0.1l2.9-8.5h3.5L238.7,89.2z"/>
		<path fill="#193A4D" d="M252.8,80.1v16.5h-3.2V80.1H246v-2.8h10.4v2.8H252.8z"/>
		<path fill="#193A4D" d="M261.1,96.5V77.3h3.3v19.2H261.1z"/>
		<path fill="#193A4D" d="M280.2,96.3c-0.8,0.5-1.8,0.7-3,0.7c-1.1,0-2.1-0.3-2.9-0.8c-0.9-0.5-1.6-1.2-2.2-2.1s-1.1-2-1.4-3.2
			c-0.3-1.2-0.5-2.6-0.5-4c0-1.5,0.2-2.8,0.5-4.1c0.3-1.2,0.8-2.3,1.4-3.2c0.6-0.9,1.4-1.6,2.2-2.1c0.9-0.5,1.9-0.7,2.9-0.7
			c1.1,0,2.1,0.2,2.9,0.6c0.8,0.4,1.5,1,2,1.8l-1.9,2.3c-0.7-1.1-1.7-1.6-2.9-1.6c-0.7,0-1.2,0.2-1.7,0.6c-0.5,0.4-0.9,0.9-1.2,1.5
			c-0.3,0.6-0.6,1.4-0.7,2.2c-0.2,0.9-0.2,1.8-0.2,2.8c0,1,0.1,1.9,0.2,2.7c0.2,0.9,0.4,1.6,0.7,2.2c0.3,0.6,0.7,1.1,1.2,1.5
			c0.5,0.4,1.1,0.6,1.8,0.6c0.6,0,1.2-0.2,1.6-0.5c0.5-0.3,0.8-0.7,1.2-1.2l1.9,2.2C281.6,95.2,281,95.9,280.2,96.3z"/>
		<path fill="#193A4D" d="M294.7,81c-0.7-0.9-1.6-1.3-2.7-1.3c-0.3,0-0.6,0.1-0.9,0.1c-0.3,0.1-0.6,0.3-0.8,0.5s-0.4,0.5-0.6,0.8
			c-0.1,0.3-0.2,0.8-0.2,1.2c0,0.8,0.2,1.4,0.7,1.9c0.5,0.4,1.1,0.9,1.9,1.3c0.5,0.2,1,0.5,1.4,0.8c0.5,0.3,0.9,0.7,1.3,1.1
			c0.4,0.4,0.7,1,1,1.5c0.3,0.6,0.4,1.3,0.4,2.1c0,0.9-0.1,1.8-0.4,2.5c-0.3,0.7-0.7,1.3-1.2,1.8c-0.5,0.5-1.1,0.9-1.8,1.1
			c-0.7,0.3-1.4,0.4-2.1,0.4c-1.1,0-2.1-0.2-3-0.6s-1.6-0.9-2.2-1.6l1.8-2.4c0.4,0.5,0.9,0.9,1.5,1.2c0.6,0.3,1.2,0.4,1.8,0.4
			c0.7,0,1.3-0.2,1.7-0.7c0.5-0.5,0.7-1.1,0.7-2c0-0.8-0.3-1.5-0.8-2c-0.5-0.5-1.2-0.9-2.1-1.4c-0.5-0.3-1-0.5-1.5-0.8
			s-0.9-0.7-1.2-1.1c-0.4-0.4-0.6-0.9-0.8-1.5c-0.2-0.6-0.3-1.3-0.3-2.1c0-1,0.2-1.9,0.5-2.6c0.3-0.7,0.7-1.3,1.2-1.8
			c0.5-0.5,1.1-0.8,1.8-1c0.7-0.2,1.3-0.3,2-0.3c1,0,1.9,0.2,2.6,0.5c0.8,0.3,1.4,0.8,1.9,1.4L294.7,81z"/>
		<path fill="#193A4D" d="M178,126.3c-0.8,0.5-1.8,0.7-3,0.7c-1.1,0-2.1-0.3-2.9-0.8c-0.9-0.5-1.6-1.2-2.2-2.1s-1.1-2-1.4-3.2
			c-0.3-1.2-0.5-2.6-0.5-4c0-1.5,0.2-2.8,0.5-4.1c0.3-1.2,0.8-2.3,1.4-3.2c0.6-0.9,1.4-1.6,2.2-2.1c0.9-0.5,1.9-0.7,2.9-0.7
			c1.1,0,2.1,0.2,2.9,0.6c0.8,0.4,1.5,1,2,1.8l-1.9,2.3c-0.7-1.1-1.7-1.6-2.9-1.6c-0.7,0-1.2,0.2-1.7,0.6c-0.5,0.4-0.9,0.9-1.2,1.5
			c-0.3,0.6-0.6,1.4-0.7,2.2c-0.2,0.9-0.2,1.8-0.2,2.8c0,1,0.1,1.9,0.2,2.7c0.2,0.9,0.4,1.6,0.7,2.2c0.3,0.6,0.7,1.1,1.2,1.5
			c0.5,0.4,1.1,0.6,1.8,0.6c0.6,0,1.2-0.2,1.6-0.5c0.5-0.3,0.8-0.7,1.2-1.2l1.9,2.2C179.4,125.2,178.8,125.9,178,126.3z"/>
		<path fill="#193A4D" d="M184.9,126.5v-19.2h8.6v2.9h-5.5v5.1h5.1v2.7h-5.1v5.7h5.8v2.9H184.9z"/>
		<path fill="#193A4D" d="M207.9,126.5l-5.5-13.6h-0.1l0.1,13.6h-2.9v-19.2h3.7l5.4,13.7h0.1l0-13.7h2.8v19.2H207.9z"/>
		<path fill="#193A4D" d="M223,110.1v16.5h-3.2v-16.5h-3.6v-2.8h10.4v2.8H223z"/>
		<path fill="#193A4D" d="M231.2,126.5v-19.2h8.6v2.9h-5.5v5.1h5.1v2.7h-5.1v5.7h5.8v2.9H231.2z"/>
		<path fill="#193A4D" d="M253.7,126.5l-3-8.2h-1.8v8.2h-3.2v-19.2h5.5c0.8,0,1.5,0.1,2.2,0.3c0.7,0.2,1.2,0.5,1.7,1
			c0.5,0.5,0.9,1,1.1,1.7c0.3,0.7,0.4,1.5,0.4,2.5c0,0.7-0.1,1.4-0.3,2c-0.2,0.6-0.4,1.1-0.7,1.5c-0.3,0.4-0.6,0.7-1,1
			c-0.4,0.2-0.7,0.4-1,0.5l3.5,8.9H253.7z M253.5,113c0-0.6-0.1-1.1-0.2-1.4s-0.4-0.7-0.6-0.9s-0.6-0.4-0.9-0.5
			c-0.3-0.1-0.7-0.1-1-0.1h-1.8v5.9h1.8c0.8,0,1.5-0.2,2-0.7C253.2,114.7,253.5,114,253.5,113z"/>
	</g>
</g>
<g id="katman_1">
</g>
</svg>
