<?xml version="1.0" encoding="UTF-8" standalone="no"?>
<!-- Generator: Adobe Illustrator 17.1.0, SVG Export Plug-In . SVG Version: 6.00 Build 0)  -->

<svg
   xmlns:dc="http://purl.org/dc/elements/1.1/"
   xmlns:cc="http://creativecommons.org/ns#"
   xmlns:rdf="http://www.w3.org/1999/02/22-rdf-syntax-ns#"
   xmlns:svg="http://www.w3.org/2000/svg"
   xmlns="http://www.w3.org/2000/svg"
   xmlns:sodipodi="http://sodipodi.sourceforge.net/DTD/sodipodi-0.dtd"
   xmlns:inkscape="http://www.inkscape.org/namespaces/inkscape"
   version="1.1"
   x="0px"
   y="0px"
   viewBox="0 0 159.60272 173"
   width="159.75487"
   height="173"
   preserveAspectRatio="xMidYMax"
   enable-background="new 0 0 314.7 163"
   xml:space="preserve"
   id="svg3863"
   sodipodi:docname="logo_stacked.svg"
   inkscape:version="0.92.2 (5c3e80d, 2017-08-06)"><metadata
     id="metadata3869"><rdf:RDF><cc:Work
         rdf:about=""><dc:format>image/svg+xml</dc:format><dc:type
           rdf:resource="http://purl.org/dc/dcmitype/StillImage" /><dc:title></dc:title></cc:Work></rdf:RDF></metadata><defs
     id="defs3867"><clipPath
       clipPathUnits="userSpaceOnUse"
       id="clipPath3885"><rect
         id="rect3887"
         width="168.51375"
         height="183.33192"
         x="-18.758879"
         y="-5.1691332"
         clip-path="none" /></clipPath></defs><sodipodi:namedview
     pagecolor="#ffffff"
     bordercolor="#666666"
     borderopacity="1"
     objecttolerance="10"
     gridtolerance="10"
     guidetolerance="10"
     inkscape:pageopacity="0"
     inkscape:pageshadow="2"
     inkscape:window-width="1436"
     inkscape:window-height="855"
     id="namedview3865"
     showgrid="false"
     fit-margin-top="5"
     fit-margin-left="5"
     fit-margin-right="5"
     fit-margin-bottom="5"
     inkscape:zoom="2.9018405"
     inkscape:cx="110.04813"
     inkscape:cy="86.49999"
     inkscape:window-x="0"
     inkscape:window-y="23"
     inkscape:window-maximized="0"
     inkscape:current-layer="svg3863" /><g
     id="Layer_1"
     transform="translate(4.9286846,5.0000001)" /><g
     id="Isolation_Mode"
     clip-path="url(#clipPath3885)"
     transform="translate(4.9286846,5.0000001)"><polygon
       id="triangle36_12_"
       points="103.2,163 5.6,96.6 73.5,71.2 "
       style="fill:#a5cee4" /><polygon
       id="triangle36_11_"
       points="114.7,53.8 65.9,0 76.2,43.8 "
       style="fill:#2b6180" /><polygon
       id="triangle36_10_"
       points="60.9,14 12,34.8 71.2,57.8 "
       style="fill:#8cb7cd" /><polygon
       id="triangle36_9_"
       points="0,89.5 7.2,44 67.7,63.6 "
       style="fill:#d0e9f7" /><polygon
       id="triangle36_8_"
       points="115.7,161.1 83.7,70.1 139.9,113.1 "
       style="fill:#8cb7cd" /><polygon
       id="triangle36_7_"
       points="126.9,64.1 87.8,56.8 143.9,100 "
       style="fill:#d0e9f7" /><g
       id="g3859"><path
         d="m 181.1,57 c 0,3 -0.6,5.4 -1.9,7.1 -1.3,1.7 -3.2,2.5 -5.6,2.5 h -4.8 V 47.3 h 4.8 c 2.5,0 4.3,0.8 5.6,2.5 1.3,1.7 1.9,4.1 1.9,7.2 z m -3.2,0 c 0,-1.1 -0.1,-2.1 -0.3,-3 -0.2,-0.9 -0.5,-1.6 -0.9,-2.1 -0.4,-0.6 -0.8,-1 -1.4,-1.3 -0.6,-0.3 -1.1,-0.4 -1.7,-0.4 H 172 v 13.5 h 1.5 c 0.6,0 1.2,-0.1 1.7,-0.4 0.5,-0.3 1,-0.7 1.4,-1.3 0.4,-0.6 0.7,-1.3 0.9,-2.1 0.2,-0.8 0.4,-1.8 0.4,-2.9 z"
         id="path3811"
         inkscape:connector-curvature="0"
         style="fill:#193a4d" /><path
         d="M 186.9,66.5 V 47.3 h 3.3 v 19.2 z"
         id="path3813"
         inkscape:connector-curvature="0"
         style="fill:#193a4d" /><path
         d="m 204.4,51 c -0.7,-0.9 -1.6,-1.3 -2.7,-1.3 -0.3,0 -0.6,0.1 -0.9,0.1 -0.3,0.1 -0.6,0.3 -0.8,0.5 -0.2,0.2 -0.4,0.5 -0.6,0.8 -0.1,0.3 -0.2,0.8 -0.2,1.2 0,0.8 0.2,1.4 0.7,1.9 0.5,0.4 1.1,0.9 1.9,1.3 0.5,0.2 1,0.5 1.4,0.8 0.5,0.3 0.9,0.7 1.3,1.1 0.4,0.4 0.7,1 1,1.5 0.3,0.6 0.4,1.3 0.4,2.1 0,0.9 -0.1,1.8 -0.4,2.5 -0.3,0.7 -0.7,1.3 -1.2,1.8 -0.5,0.5 -1.1,0.9 -1.8,1.1 -0.7,0.3 -1.4,0.4 -2.1,0.4 -1.1,0 -2.1,-0.2 -3,-0.6 -0.9,-0.4 -1.6,-0.9 -2.2,-1.6 l 1.8,-2.4 c 0.4,0.5 0.9,0.9 1.5,1.2 0.6,0.3 1.2,0.4 1.8,0.4 0.7,0 1.3,-0.2 1.7,-0.7 0.5,-0.5 0.7,-1.1 0.7,-2 0,-0.8 -0.3,-1.5 -0.8,-2 -0.5,-0.5 -1.2,-0.9 -2.1,-1.4 -0.5,-0.3 -1,-0.5 -1.5,-0.8 -0.5,-0.3 -0.9,-0.7 -1.2,-1.1 -0.4,-0.4 -0.6,-0.9 -0.8,-1.5 -0.2,-0.6 -0.3,-1.3 -0.3,-2.1 0,-1 0.2,-1.9 0.5,-2.6 0.3,-0.7 0.7,-1.3 1.2,-1.8 0.5,-0.5 1.1,-0.8 1.8,-1 0.7,-0.2 1.3,-0.3 2,-0.3 1,0 1.9,0.2 2.6,0.5 0.8,0.3 1.4,0.8 1.9,1.4 z"
         id="path3815"
         inkscape:connector-curvature="0"
         style="fill:#193a4d" /><path
         d="m 221,66.3 c -0.8,0.5 -1.8,0.7 -3,0.7 -1.1,0 -2.1,-0.3 -2.9,-0.8 -0.9,-0.5 -1.6,-1.2 -2.2,-2.1 -0.6,-0.9 -1.1,-2 -1.4,-3.2 -0.3,-1.2 -0.5,-2.6 -0.5,-4 0,-1.5 0.2,-2.8 0.5,-4.1 0.3,-1.2 0.8,-2.3 1.4,-3.2 0.6,-0.9 1.4,-1.6 2.2,-2.1 0.9,-0.5 1.9,-0.7 2.9,-0.7 1.1,0 2.1,0.2 2.9,0.6 0.8,0.4 1.5,1 2,1.8 l -1.9,2.3 c -0.7,-1.1 -1.7,-1.6 -2.9,-1.6 -0.7,0 -1.2,0.2 -1.7,0.6 -0.5,0.4 -0.9,0.9 -1.2,1.5 -0.3,0.6 -0.6,1.4 -0.7,2.2 -0.2,0.9 -0.2,1.8 -0.2,2.8 0,1 0.1,1.9 0.2,2.7 0.2,0.9 0.4,1.6 0.7,2.2 0.3,0.6 0.7,1.1 1.2,1.5 0.5,0.4 1.1,0.6 1.8,0.6 0.6,0 1.2,-0.2 1.6,-0.5 0.5,-0.3 0.8,-0.7 1.2,-1.2 l 1.9,2.2 c -0.5,0.7 -1.2,1.4 -1.9,1.8 z"
         id="path3817"
         inkscape:connector-curvature="0"
         style="fill:#193a4d" /><path
         d="m 240.6,56.9 c 0,1.5 -0.2,2.9 -0.5,4.1 -0.3,1.2 -0.8,2.3 -1.4,3.2 -0.6,0.9 -1.3,1.6 -2.2,2.1 -0.9,0.5 -1.8,0.7 -2.9,0.7 -1.1,0 -2.1,-0.2 -2.9,-0.7 -0.9,-0.5 -1.6,-1.2 -2.2,-2.1 -0.6,-0.9 -1.1,-2 -1.4,-3.2 -0.3,-1.2 -0.5,-2.6 -0.5,-4.1 0,-1.5 0.2,-2.9 0.5,-4.1 0.3,-1.2 0.8,-2.3 1.4,-3.2 0.6,-0.9 1.3,-1.6 2.2,-2.1 0.9,-0.5 1.8,-0.7 2.9,-0.7 1.1,0 2,0.2 2.9,0.7 0.9,0.5 1.6,1.2 2.2,2.1 0.6,0.9 1.1,1.9 1.4,3.2 0.4,1.2 0.5,2.6 0.5,4.1 z m -3.4,0 c 0,-1 -0.1,-1.9 -0.2,-2.8 -0.2,-0.9 -0.4,-1.6 -0.7,-2.2 -0.3,-0.6 -0.7,-1.1 -1.1,-1.5 -0.4,-0.4 -1,-0.5 -1.5,-0.5 -0.6,0 -1.1,0.2 -1.6,0.5 -0.4,0.4 -0.8,0.9 -1.1,1.5 -0.3,0.6 -0.5,1.4 -0.7,2.2 -0.2,0.8 -0.2,1.8 -0.2,2.8 0,1 0.1,1.9 0.2,2.8 0.1,0.9 0.4,1.6 0.7,2.2 0.3,0.6 0.7,1.1 1.1,1.5 0.4,0.4 1,0.5 1.6,0.5 0.6,0 1.1,-0.2 1.6,-0.5 0.4,-0.4 0.8,-0.9 1.1,-1.5 0.3,-0.6 0.5,-1.4 0.7,-2.2 0.1,-0.9 0.1,-1.8 0.1,-2.8 z"
         id="path3819"
         inkscape:connector-curvature="0"
         style="fill:#193a4d" /><path
         d="M 253.2,66.5 H 249 l -4.7,-19.2 h 3.6 l 3.2,15.4 h 0.1 l 3.2,-15.4 h 3.5 z"
         id="path3821"
         inkscape:connector-curvature="0"
         style="fill:#193a4d" /><path
         d="M 262.7,66.5 V 47.3 h 8.6 v 2.9 h -5.5 v 5.1 h 5.1 V 58 h -5.1 v 5.7 h 5.8 v 2.9 h -8.9 z"
         id="path3823"
         inkscape:connector-curvature="0"
         style="fill:#193a4d" /><path
         d="m 285.2,66.5 -3,-8.2 h -1.8 v 8.2 h -3.2 V 47.3 h 5.5 c 0.8,0 1.5,0.1 2.2,0.3 0.7,0.2 1.2,0.5 1.7,1 0.5,0.5 0.9,1 1.1,1.7 0.3,0.7 0.4,1.5 0.4,2.5 0,0.7 -0.1,1.4 -0.3,2 -0.2,0.6 -0.4,1.1 -0.7,1.5 -0.3,0.4 -0.6,0.7 -1,1 -0.4,0.2 -0.7,0.4 -1,0.5 l 3.5,8.9 h -3.4 z M 285,53 c 0,-0.6 -0.1,-1.1 -0.2,-1.4 -0.1,-0.3 -0.4,-0.7 -0.6,-0.9 -0.2,-0.2 -0.6,-0.4 -0.9,-0.5 -0.3,-0.1 -0.7,-0.1 -1,-0.1 h -1.8 V 56 h 1.8 c 0.8,0 1.5,-0.2 2,-0.7 0.4,-0.6 0.7,-1.3 0.7,-2.3 z"
         id="path3825"
         inkscape:connector-curvature="0"
         style="fill:#193a4d" /><path
         d="m 299.8,59.2 v 7.4 h -3.2 v -7.4 l -4.8,-11.9 h 3.5 l 2.9,8.6 0.1,-0.1 2.9,-8.5 h 3.5 z"
         id="path3827"
         inkscape:connector-curvature="0"
         style="fill:#193a4d" /><path
         d="m 177.1,96.5 -1,-4.1 H 171 l -1,4.1 h -3.3 l 4.8,-19.2 h 4.2 l 4.7,19.2 z m -3.4,-16.1 h -0.1 l -2.1,9.5 h 4.2 z"
         id="path3829"
         inkscape:connector-curvature="0"
         style="fill:#193a4d" /><path
         d="M 193.6,96.5 188.2,83 h -0.1 l 0.1,13.6 h -2.9 V 77.3 h 3.7 l 5.4,13.7 h 0.1 V 77.3 h 2.8 v 19.2 z"
         id="path3831"
         inkscape:connector-curvature="0"
         style="fill:#193a4d" /><path
         d="m 212.2,96.5 -1,-4.1 h -5.1 l -1,4.1 H 202 l 4.8,-19.2 h 4.2 l 4.7,19.2 z m -3.4,-16.1 h -0.1 l -2.1,9.5 h 4.2 z"
         id="path3833"
         inkscape:connector-curvature="0"
         style="fill:#193a4d" /><path
         d="M 220.3,96.5 V 77.3 h 3.3 v 16.2 h 5.3 v 3 z"
         id="path3835"
         inkscape:connector-curvature="0"
         style="fill:#193a4d" /><path
         d="m 238.7,89.2 v 7.4 h -3.2 v -7.4 l -4.8,-11.9 h 3.5 l 2.9,8.6 0.1,-0.1 2.9,-8.5 h 3.5 z"
         id="path3837"
         inkscape:connector-curvature="0"
         style="fill:#193a4d" /><path
         d="m 252.8,80.1 v 16.5 h -3.2 V 80.1 H 246 v -2.8 h 10.4 v 2.8 z"
         id="path3839"
         inkscape:connector-curvature="0"
         style="fill:#193a4d" /><path
         d="M 261.1,96.5 V 77.3 h 3.3 v 19.2 z"
         id="path3841"
         inkscape:connector-curvature="0"
         style="fill:#193a4d" /><path
         d="m 280.2,96.3 c -0.8,0.5 -1.8,0.7 -3,0.7 -1.1,0 -2.1,-0.3 -2.9,-0.8 -0.9,-0.5 -1.6,-1.2 -2.2,-2.1 -0.6,-0.9 -1.1,-2 -1.4,-3.2 -0.3,-1.2 -0.5,-2.6 -0.5,-4 0,-1.5 0.2,-2.8 0.5,-4.1 0.3,-1.2 0.8,-2.3 1.4,-3.2 0.6,-0.9 1.4,-1.6 2.2,-2.1 0.9,-0.5 1.9,-0.7 2.9,-0.7 1.1,0 2.1,0.2 2.9,0.6 0.8,0.4 1.5,1 2,1.8 l -1.9,2.3 c -0.7,-1.1 -1.7,-1.6 -2.9,-1.6 -0.7,0 -1.2,0.2 -1.7,0.6 -0.5,0.4 -0.9,0.9 -1.2,1.5 -0.3,0.6 -0.6,1.4 -0.7,2.2 -0.2,0.9 -0.2,1.8 -0.2,2.8 0,1 0.1,1.9 0.2,2.7 0.2,0.9 0.4,1.6 0.7,2.2 0.3,0.6 0.7,1.1 1.2,1.5 0.5,0.4 1.1,0.6 1.8,0.6 0.6,0 1.2,-0.2 1.6,-0.5 0.5,-0.3 0.8,-0.7 1.2,-1.2 l 1.9,2.2 c -0.5,0.7 -1.1,1.4 -1.9,1.8 z"
         id="path3843"
         inkscape:connector-curvature="0"
         style="fill:#193a4d" /><path
         d="m 294.7,81 c -0.7,-0.9 -1.6,-1.3 -2.7,-1.3 -0.3,0 -0.6,0.1 -0.9,0.1 -0.3,0.1 -0.6,0.3 -0.8,0.5 -0.2,0.2 -0.4,0.5 -0.6,0.8 -0.1,0.3 -0.2,0.8 -0.2,1.2 0,0.8 0.2,1.4 0.7,1.9 0.5,0.4 1.1,0.9 1.9,1.3 0.5,0.2 1,0.5 1.4,0.8 0.5,0.3 0.9,0.7 1.3,1.1 0.4,0.4 0.7,1 1,1.5 0.3,0.6 0.4,1.3 0.4,2.1 0,0.9 -0.1,1.8 -0.4,2.5 -0.3,0.7 -0.7,1.3 -1.2,1.8 -0.5,0.5 -1.1,0.9 -1.8,1.1 -0.7,0.3 -1.4,0.4 -2.1,0.4 -1.1,0 -2.1,-0.2 -3,-0.6 -0.9,-0.4 -1.6,-0.9 -2.2,-1.6 l 1.8,-2.4 c 0.4,0.5 0.9,0.9 1.5,1.2 0.6,0.3 1.2,0.4 1.8,0.4 0.7,0 1.3,-0.2 1.7,-0.7 0.5,-0.5 0.7,-1.1 0.7,-2 0,-0.8 -0.3,-1.5 -0.8,-2 -0.5,-0.5 -1.2,-0.9 -2.1,-1.4 -0.5,-0.3 -1,-0.5 -1.5,-0.8 -0.5,-0.3 -0.9,-0.7 -1.2,-1.1 -0.4,-0.4 -0.6,-0.9 -0.8,-1.5 -0.2,-0.6 -0.3,-1.3 -0.3,-2.1 0,-1 0.2,-1.9 0.5,-2.6 0.3,-0.7 0.7,-1.3 1.2,-1.8 0.5,-0.5 1.1,-0.8 1.8,-1 0.7,-0.2 1.3,-0.3 2,-0.3 1,0 1.9,0.2 2.6,0.5 0.8,0.3 1.4,0.8 1.9,1.4 z"
         id="path3845"
         inkscape:connector-curvature="0"
         style="fill:#193a4d" /><path
         d="m 178,126.3 c -0.8,0.5 -1.8,0.7 -3,0.7 -1.1,0 -2.1,-0.3 -2.9,-0.8 -0.9,-0.5 -1.6,-1.2 -2.2,-2.1 -0.6,-0.9 -1.1,-2 -1.4,-3.2 -0.3,-1.2 -0.5,-2.6 -0.5,-4 0,-1.5 0.2,-2.8 0.5,-4.1 0.3,-1.2 0.8,-2.3 1.4,-3.2 0.6,-0.9 1.4,-1.6 2.2,-2.1 0.9,-0.5 1.9,-0.7 2.9,-0.7 1.1,0 2.1,0.2 2.9,0.6 0.8,0.4 1.5,1 2,1.8 l -1.9,2.3 c -0.7,-1.1 -1.7,-1.6 -2.9,-1.6 -0.7,0 -1.2,0.2 -1.7,0.6 -0.5,0.4 -0.9,0.9 -1.2,1.5 -0.3,0.6 -0.6,1.4 -0.7,2.2 -0.2,0.9 -0.2,1.8 -0.2,2.8 0,1 0.1,1.9 0.2,2.7 0.2,0.9 0.4,1.6 0.7,2.2 0.3,0.6 0.7,1.1 1.2,1.5 0.5,0.4 1.1,0.6 1.8,0.6 0.6,0 1.2,-0.2 1.6,-0.5 0.5,-0.3 0.8,-0.7 1.2,-1.2 l 1.9,2.2 c -0.5,0.7 -1.1,1.4 -1.9,1.8 z"
         id="path3847"
         inkscape:connector-curvature="0"
         style="fill:#193a4d" /><path
         d="m 184.9,126.5 v -19.2 h 8.6 v 2.9 H 188 v 5.1 h 5.1 V 118 H 188 v 5.7 h 5.8 v 2.9 h -8.9 z"
         id="path3849"
         inkscape:connector-curvature="0"
         style="fill:#193a4d" /><path
         d="m 207.9,126.5 -5.5,-13.6 h -0.1 l 0.1,13.6 h -2.9 v -19.2 h 3.7 l 5.4,13.7 h 0.1 v -13.7 h 2.8 v 19.2 z"
         id="path3851"
         inkscape:connector-curvature="0"
         style="fill:#193a4d" /><path
         d="m 223,110.1 v 16.5 h -3.2 v -16.5 h -3.6 v -2.8 h 10.4 v 2.8 z"
         id="path3853"
         inkscape:connector-curvature="0"
         style="fill:#193a4d" /><path
         d="m 231.2,126.5 v -19.2 h 8.6 v 2.9 h -5.5 v 5.1 h 5.1 v 2.7 h -5.1 v 5.7 h 5.8 v 2.9 h -8.9 z"
         id="path3855"
         inkscape:connector-curvature="0"
         style="fill:#193a4d" /><path
         d="m 253.7,126.5 -3,-8.2 h -1.8 v 8.2 h -3.2 v -19.2 h 5.5 c 0.8,0 1.5,0.1 2.2,0.3 0.7,0.2 1.2,0.5 1.7,1 0.5,0.5 0.9,1 1.1,1.7 0.3,0.7 0.4,1.5 0.4,2.5 0,0.7 -0.1,1.4 -0.3,2 -0.2,0.6 -0.4,1.1 -0.7,1.5 -0.3,0.4 -0.6,0.7 -1,1 -0.4,0.2 -0.7,0.4 -1,0.5 l 3.5,8.9 h -3.4 z M 253.5,113 c 0,-0.6 -0.1,-1.1 -0.2,-1.4 -0.1,-0.3 -0.4,-0.7 -0.6,-0.9 -0.2,-0.2 -0.6,-0.4 -0.9,-0.5 -0.3,-0.1 -0.7,-0.1 -1,-0.1 H 249 v 5.9 h 1.8 c 0.8,0 1.5,-0.2 2,-0.7 0.4,-0.6 0.7,-1.3 0.7,-2.3 z"
         id="path3857"
         inkscape:connector-curvature="0"
         style="fill:#193a4d" /></g></g><g
     id="katman_1"
     transform="translate(4.9286846,5.0000001)" /></svg>